<svg xmlns="http://www.w3.org/2000/svg" viewBox="0 0 100 100" width="40px">
    <g>
        <circle cx="50" cy="50" r="45" fill="#fdd835"/>
        <path fill="#fff" d="M50,23.5c-14.6,0-26.5,11.9-26.5,26.5S35.4,76.5,50,76.5S76.5,64.6,76.5,50S64.6,23.5,50,23.5z M50,72.5
      c-12.4,0-22.5-10.1-22.5-22.5S37.6,27.5,50,27.5S72.5,37.6,72.5,50S62.4,72.5,50,72.5z"/>
        <path fill="#fff" d="M50,30c-11,0-20,9-20,20s9,20,20,20s20-9,20-20S61,30,50,30z M50,66c-8.8,0-16-7.2-16-16s7.2-16,16-16
      s16,7.2,16,16S58.8,66,50,66z"/>
        <circle cx="50" cy="50" r="10" fill="#fff">
            <animateTransform attributeType="xml" attributeName="transform" type="rotate" from="0 50 50" to="20 50 50" begin="0s" dur="0.8s" repeatCount="indefinite"/>
        </circle>
    </g>
</svg>
